<?xml version="1.0" encoding="UTF-8" standalone="yes"?>
<svg fill="#5856D6" width="800px" height="800px" viewBox="0 0 32 32" version="1.2" baseProfile="tiny-ps" xmlns="http://www.w3.org/2000/svg">
  <title>hogwarts-svg-tiny-12</title>
  <path d="M15.864 1.54c-7.955 0-14.404 6.449-14.404 14.404 0 4.308 1.892 8.174 4.89 10.814v-8.69l-0.875-1.421h0.474l2.77-7.143 2.733 7.143h0.51l-0.911 1.421v1.13h2.332v-7.689l-0.875-1.421h0.474l2.769-7.142 2.77 7.142h0.474l-0.911 1.421v5.503h2.296v-2.114l-0.911-1.421h0.51l2.733-7.143 2.77 7.143h0.474l-0.875 1.421v12.114c3.169-2.642 5.186-6.619 5.186-11.068 0-7.955-6.449-14.404-14.403-14.404z"/>
</svg>
